<svg viewBox="0 0 400 300" xmlns="http://www.w3.org/2000/svg"><path d="m117.45 62.86h166.92v122.47h-166.92z" fill="#e6e6e6"/><path d="m128 76.85h79.54v94.79h-79.54z" fill="#f2f2f2"/><path d="m177.56 76.85h96.34v94.79h-96.34z" fill="#24285b"/><path d="m219.42 118.46h24.72v1.73h-24.72z" fill="#68e1fd"/><path d="m230.43 123h24.72v1.73h-24.72z" fill="#ffd200"/><path d="m213.47 114.29h20.74v1.73h-20.74z" fill="#68e1fd"/><path d="m238.52 114.29h20.74v1.73h-20.74z" fill="#68e1fd"/><path d="m219.42 109.47h18.54v1.73h-18.54z" fill="#ffd200"/><path d="m242.79 109.47h18.54v1.73h-18.54z" fill="#ffd200"/><path d="m205.77 118.46h9.3v1.73h-9.3z" fill="#fff"/><path d="m215.03 123h9.3v1.73h-9.3z" fill="#fff"/><path d="m199.82 114.29h9.3v1.73h-9.3z" fill="#fff"/><path d="m199.82 101.15h9.3v1.73h-9.3z" fill="#fff"/><path d="m205.77 105.47h9.3v1.73h-9.3z" fill="#fff"/><path d="m219.42 105.47h18.54v1.73h-18.54z" fill="#ffd200"/><path d="m242.79 105.47h18.54v1.73h-18.54z" fill="#ffd200"/><path d="m205.77 109.47h9.3v1.73h-9.3z" fill="#fff"/><path d="m212.83 101.15h19.15v1.73h-19.15z" fill="#68e1fd"/><path d="m135.87 101.15h4.97v1.73h-4.97z" fill="#c9c9c9"/><path d="m143.87 101.15h14.12v1.73h-14.12z" fill="#a5a5a5"/><path d="m161.71 101.15h8.57v1.73h-8.57z" fill="#fff"/><path d="m135.87 96.64h9.95v1.73h-9.95z" fill="#c9c9c9"/><path d="m149.79 96.64h20.49v1.73h-20.49z" fill="#a5a5a5"/><path d="m135.87 105.43h9.95v1.73h-9.95z" fill="#fff"/><path d="m149.79 105.43h20.49v1.73h-20.49z" fill="#a5a5a5"/><path d="m135.87 109.53h6.91v1.73h-6.91z" fill="#fff"/><path d="m163.41 109.53h6.91v1.73h-6.91z" fill="#c9c9c9"/><path d="m145.53 109.53h14.23v1.73h-14.23z" fill="#a5a5a5"/><path d="m135.87 118.71h4.97v1.73h-4.97z" fill="#c9c9c9"/><path d="m143.87 118.71h14.12v1.73h-14.12z" fill="#a5a5a5"/><path d="m161.71 118.71h8.57v1.73h-8.57z" fill="#fff"/><path d="m135.87 114.2h9.95v1.73h-9.95z" fill="#c9c9c9"/><path d="m149.79 114.2h20.49v1.73h-20.49z" fill="#a5a5a5"/><path d="m135.87 122.99h9.95v1.73h-9.95z" fill="#fff"/><path d="m149.79 122.99h20.49v1.73h-20.49z" fill="#a5a5a5"/><path d="m135.87 127.09h6.91v1.73h-6.91z" fill="#fff"/><path d="m163.41 127.09h6.91v1.73h-6.91z" fill="#c9c9c9"/><path d="m145.53 127.09h14.23v1.73h-14.23z" fill="#a5a5a5"/><path d="m135.87 135.93h4.97v1.73h-4.97z" fill="#c9c9c9"/><path d="m143.87 135.93h14.12v1.73h-14.12z" fill="#a5a5a5"/><path d="m161.71 135.93h8.57v1.73h-8.57z" fill="#fff"/><path d="m135.87 131.42h9.95v1.73h-9.95z" fill="#c9c9c9"/><path d="m149.79 131.42h20.49v1.73h-20.49z" fill="#a5a5a5"/><path d="m135.87 140.21h9.95v1.73h-9.95z" fill="#fff"/><path d="m149.79 140.21h20.49v1.73h-20.49z" fill="#a5a5a5"/><path d="m135.87 144.31h6.91v1.73h-6.91z" fill="#fff"/><path d="m163.41 144.31h6.91v1.73h-6.91z" fill="#c9c9c9"/><path d="m145.53 144.31h14.23v1.73h-14.23z" fill="#a5a5a5"/><path d="m235.99 101.15h13.6v1.73h-13.6z" fill="#68e1fd"/><path d="m219.42 145.27h24.72v1.73h-24.72z" fill="#68e1fd"/><path d="m230.43 149.81h24.72v1.73h-24.72z" fill="#ffd200"/><path d="m213.47 141.1h20.74v1.73h-20.74z" fill="#68e1fd"/><path d="m238.52 141.1h20.74v1.73h-20.74z" fill="#68e1fd"/><path d="m219.42 136.29h18.54v1.73h-18.54z" fill="#ffd200"/><path d="m242.79 136.29h18.54v1.73h-18.54z" fill="#ffd200"/><path d="m205.77 145.27h9.3v1.73h-9.3z" fill="#fff"/><path d="m215.03 149.81h9.3v1.73h-9.3z" fill="#fff"/><path d="m199.82 141.1h9.3v1.73h-9.3z" fill="#fff"/><path d="m199.82 127.96h9.3v1.73h-9.3z" fill="#fff"/><path d="m205.77 132.28h9.3v1.73h-9.3z" fill="#fff"/><path d="m219.42 132.28h18.54v1.73h-18.54z" fill="#ffd200"/><path d="m242.79 132.28h18.54v1.73h-18.54z" fill="#ffd200"/><path d="m205.77 136.29h9.3v1.73h-9.3z" fill="#fff"/><path d="m212.83 127.96h19.15v1.73h-19.15z" fill="#68e1fd"/><path d="m235.99 127.96h13.6v1.73h-13.6z" fill="#68e1fd"/><path d="m202.07 68.23h18.66v2.74h-18.66z" fill="#c9c9c9"/><circle cx="197.01" cy="69.51" fill="#a5a5a5" r="2.25"/><g fill="#fff"><path d="m199.31 85.94-3.78 1.38 3.78 1.38v1.41l-5.41-2v-1.53l5.41-2z"/><path d="m199.82 90.27 1-1.22a1.82 1.82 0 0 0 1.48.87c.74 0 1.12-.44 1.12-1.32v-3.78h-2.79v-1.47h4.62v5.15c0 2-1 2.93-2.86 2.93a3.2 3.2 0 0 1 -2.57-1.16z"/><path d="m212.37 87.81v3.48h-1.66v-.76a2 2 0 0 1 -1.86.86c-1.43 0-2.28-.8-2.28-1.85s.76-1.83 2.62-1.83h1.41c0-.76-.46-1.21-1.41-1.21a2.94 2.94 0 0 0 -1.76.57l-.64-1.24a4.76 4.76 0 0 1 2.64-.73c1.86 0 2.94.9 2.94 2.71zm-1.77 1.55v-.62h-1.22c-.83 0-1.09.31-1.09.72s.38.73 1 .73a1.31 1.31 0 0 0 1.31-.83z"/><path d="m219.92 85.19-2.58 6.1h-1.83l-2.51-6.1h1.83l1.69 4.15 1.75-4.15z"/><path d="m225.85 87.81v3.48h-1.66v-.76a2 2 0 0 1 -1.86.86c-1.43 0-2.28-.8-2.28-1.85s.76-1.83 2.62-1.83h1.41c0-.76-.46-1.21-1.41-1.21a2.94 2.94 0 0 0 -1.76.57l-.64-1.24a4.78 4.78 0 0 1 2.64-.73c1.86 0 2.94.9 2.94 2.71zm-1.77 1.55v-.62h-1.22c-.83 0-1.09.31-1.09.72s.38.73 1 .73a1.31 1.31 0 0 0 1.31-.83z"/><path d="m232.74 86.58v1.48l-5.4 2v-1.36l3.78-1.38-3.78-1.38v-1.41z"/><circle cx="191.14" cy="102.09" r="1.29"/><circle cx="191.14" cy="106.17" r="1.29"/><circle cx="191.14" cy="110.25" r="1.29"/><circle cx="191.14" cy="115.58" r="1.29"/><circle cx="191.14" cy="119.66" r="1.29"/><circle cx="191.14" cy="123.74" r="1.29"/><circle cx="191.14" cy="128.95" r="1.29"/><circle cx="191.14" cy="133.03" r="1.29"/><circle cx="191.14" cy="137.11" r="1.29"/><circle cx="191.14" cy="142.47" r="1.29"/><circle cx="191.14" cy="146.55" r="1.29"/><circle cx="191.14" cy="150.63" r="1.29"/></g><path d="m135.87 151.54h34.45v15.15h-34.45z" fill="#e6e6e6"/><circle cx="138.56" cy="84.44" fill="#24285b" r="2.11"/><circle cx="144.83" cy="84.44" fill="#68e1fd" r="2.11"/><circle cx="150.73" cy="84.44" fill="#ffd200" r="2.11"/><path d="m284.37 185.33h-80.13-8.37-78.21l-31.18 54.51h109.39 8.37 111.31z" fill="#c9c9c9"/><path d="m128 191.5-11.98 23.53h171.41l-11.92-23.53z" fill="#e6e6e6"/><path d="m174.02 219.53-3.73 14.5h61.49l-4.44-14.5z" fill="#e6e6e6"/><path d="m86.48 239.84h229.07v7.64h-229.07z" fill="#e6e6e6"/></svg>